<?xml version="1.0" encoding="UTF-8" standalone="no"?>
<svg
   id="Layer_1"
   data-name="Layer 1"
   viewBox="0 0 609.95 250.07001"
   version="1.1"
   sodipodi:docname="btm_white.svg"
   inkscape:version="1.4 (86a8ad7, 2024-10-11)"
   width="609.95001"
   height="250.06999"
   xmlns:inkscape="http://www.inkscape.org/namespaces/inkscape"
   xmlns:sodipodi="http://sodipodi.sourceforge.net/DTD/sodipodi-0.dtd"
   xmlns="http://www.w3.org/2000/svg"
   xmlns:svg="http://www.w3.org/2000/svg"
   xmlns:rdf="http://www.w3.org/1999/02/22-rdf-syntax-ns#"
   xmlns:cc="http://creativecommons.org/ns#"
   xmlns:dc="http://purl.org/dc/elements/1.1/">
  <sodipodi:namedview
     id="namedview2"
     pagecolor="#ffffff"
     bordercolor="#000000"
     borderopacity="0.25"
     inkscape:showpageshadow="2"
     inkscape:pageopacity="0.0"
     inkscape:pagecheckerboard="0"
     inkscape:deskcolor="#d1d1d1"
     inkscape:zoom="1.2069687"
     inkscape:cx="491.72777"
     inkscape:cy="311.10999"
     inkscape:window-width="1920"
     inkscape:window-height="990"
     inkscape:window-x="-11"
     inkscape:window-y="-11"
     inkscape:window-maximized="1"
     inkscape:current-layer="Layer_1">
    <inkscape:page
       x="0"
       y="0"
       width="609.95001"
       height="250.07001"
       id="page1"
       margin="0"
       bleed="0" />
  </sodipodi:namedview>
  <defs
     id="defs1">
    <style
       id="style1">.cls-1{fill:#033;}.cls-2{fill:#e0b287;}</style>
  </defs>
  <title
     id="title1">btm beige</title>
  <path
     class="cls-2"
     d="m 151.1,113.15 q 23.42,-6 36.36,-20.390001 12.94,-14.39 12.95,-30.68 0,-37.25 -30,-49.66 Q 140.41,0.00999867 95.750002,-1.3346703e-6 H 1.7605084e-6 V 10.649999 H 3.5500017 q 14.9000003,0 19.8600003,8.69 4.96,8.69 5,26.78 V 234.12 H 106.41 q 45.75,0 75.2,-14 29.45,-14 29.44,-50.9 0,-50.03 -59.95,-56.07 z m -76.609998,-96.470001 4.92,-1.26 c 4.2,-0.94 10,-1.23 16.36,-1.23 q 23.419998,0 39.189998,10.82 15.77,10.82 15.79,35.29 0,24.13 -13.3,34.94 Q 124.15,106.05 101.09,106.06 H 74.490002 Z M 145.96,207.15 q -15.47,12.77 -44.87,12.77 h -1.769998 a 80.5,80.5 0 0 1 -17.74,-1.77 31,31 0 0 1 -7.09,-1.79 V 122.02 H 101.09 q 60.3,0 60.3,48.95 0,23.39 -15.43,36.18 z"
     id="path1"
     style="opacity:1;fill:#ffffff;fill-opacity:1" />
  <path
     class="cls-2"
     d="m 589.78,222.76 q -5.67,-15.61 -5.67,-48.95 V -1.3346704e-6 H 537.64 L 464.93,174.16 379.09,-1.3346704e-6 H 185.59 A 62.76,62.76 0 0 1 204.22,15.999999 h 33 V 234.11 h 46.11 V 15.969999 h 52.44 V 234.11 H 353.5 V 41.109999 L 448.56,234.11 h 11.71 L 537.95,48.239999 V 173.81 q 0,40.44 16.84,58.35 16.84,17.91 55.16,17.91 v -8.87 q -14.46,-2.84 -20.17,-18.44 z"
     id="path2"
     style="opacity:1;fill:#ffffff;fill-opacity:1" />
  <polygon
     class="cls-2"
     points="650.84,241.41 673.63,185.64 623.46,185.64 "
     id="polygon2"
     style="opacity:1;fill:#ffffff;fill-opacity:1"
     transform="translate(-186.51,-185.64)" />
  <metadata
     id="metadata2">
    <rdf:RDF>
      <cc:Work
         rdf:about="">
        <dc:title>btm beige</dc:title>
      </cc:Work>
    </rdf:RDF>
  </metadata>
</svg>
